HIERARCHY
ROOT root
{
	OFFSET	0	13.1	24.9
	CHANNELS 6  Xposition Yposition Zposition Xrotation Yrotation Zrotation
	JOINT spine_1
	{
		OFFSET	0	9.99999	0
		CHANNELS 3  Xrotation Yrotation Zrotation
		JOINT spine_2
		{
			OFFSET	0	112	-10
			CHANNELS 3  Xrotation Yrotation Zrotation
			JOINT spine_3
			{
				OFFSET	0	206.5	19.3
				CHANNELS 3  Xrotation Yrotation Zrotation
				JOINT spine_4
				{
					OFFSET	0	110.4	14.6
					CHANNELS 3  Xrotation Yrotation Zrotation
					JOINT neck_1
					{
						OFFSET	0	71.8	-50.3
						CHANNELS 3  Xrotation Yrotation Zrotation
						JOINT neck_2
						{
							OFFSET	0	86.2	-25.8
							CHANNELS 3  Xrotation Yrotation Zrotation
							JOINT head_ee
							{
								OFFSET	0	179.8	-8.7
								CHANNELS 3  Xrotation Yrotation Zrotation
								End Site
								{
									OFFSET	1	0	0
								}
							}
						}
					}
					JOINT left_clavicle
					{
						OFFSET	-43.2	22.4	-70.8
						CHANNELS 3  Xrotation Yrotation Zrotation
						JOINT left_shoulder
						{
							OFFSET	-93.9	-5.79999	48.7
							CHANNELS 3  Xrotation Yrotation Zrotation
							JOINT left_elbow
							{
								OFFSET	-291.4	-30.8	15.2
								CHANNELS 3  Xrotation Yrotation Zrotation
								JOINT left_lowarm_twist
								{
									OFFSET	-110.7	-3.89999	13.6
									CHANNELS 3  Xrotation Yrotation Zrotation
									JOINT left_hand
									{
										OFFSET	-110.7	-3.89999	13.6
										CHANNELS 3  Xrotation Yrotation Zrotation
										JOINT left_ee
										{
											OFFSET	-80.8	-5.10001	12.1
											CHANNELS 3  Xrotation Yrotation Zrotation
											End Site
											{
												OFFSET	1	0	0
											}
										}
									}
								}
							}
						}
					}
					JOINT right_clavicle
					{
						OFFSET	43.2	22.4	-70.8
						CHANNELS 3  Xrotation Yrotation Zrotation
						JOINT right_shoulder
						{
							OFFSET	93.9	-5.79999	48.7
							CHANNELS 3  Xrotation Yrotation Zrotation
							JOINT right_elbow
							{
								OFFSET	291.4	-30.8	15.2
								CHANNELS 3  Xrotation Yrotation Zrotation
								JOINT right_lowarm_twist
								{
									OFFSET	110.7	-3.89999	13.6
									CHANNELS 3  Xrotation Yrotation Zrotation
									JOINT right_hand
									{
										OFFSET	110.7	-3.89999	13.6
										CHANNELS 3  Xrotation Yrotation Zrotation
										JOINT right_ee
										{
											OFFSET	80.8	-5.10001	12.1
											CHANNELS 3  Xrotation Yrotation Zrotation
											End Site
											{
												OFFSET	1	0	0
											}
										}
									}
								}
							}
						}
					}
				}
			}
		}
	}
	JOINT left_hip
	{
		OFFSET	-82.8	-127.5	0.300001
		CHANNELS 3  Xrotation Yrotation Zrotation
		JOINT left_knee
		{
			OFFSET	-28.2	-396.7	2.2
			CHANNELS 3  Xrotation Yrotation Zrotation
			JOINT left_ankle
			{
				OFFSET	-11.7	-411.3	35.4
				CHANNELS 3  Xrotation Yrotation Zrotation
				JOINT left_toes
				{
					OFFSET	0	-60	-88.6
					CHANNELS 3  Xrotation Yrotation Zrotation
					JOINT left_foot_ee
					{
						OFFSET	-22.5	-16.5	-42.2
						CHANNELS 3  Xrotation Yrotation Zrotation
						End Site
						{
							OFFSET	1	0	0
						}
					}
				}
			}
		}
	}
	JOINT right_hip
	{
		OFFSET	82.8	-127.5	0.300001
		CHANNELS 3  Xrotation Yrotation Zrotation
		JOINT right_knee
		{
			OFFSET	28.2	-396.7	2.2
			CHANNELS 3  Xrotation Yrotation Zrotation
			JOINT right_ankle
			{
				OFFSET	11.7	-411.3	35.4
				CHANNELS 3  Xrotation Yrotation Zrotation
				JOINT right_toes
				{
					OFFSET	0	-60	-88.6
					CHANNELS 3  Xrotation Yrotation Zrotation
					JOINT right_foot_ee
					{
						OFFSET	22.5	-16.5	-42.2
						CHANNELS 3  Xrotation Yrotation Zrotation
						End Site
						{
							OFFSET	1	0	0
						}
					}
				}
			}
		}
	}
}
MOTION
Frames: 13
Frame Time: 0.02
2886.44102034 694.865 -1613.94498866 -174.957232118 71.4937498762 169.899207513 -0.0124684 0.841949 4.34207 -0.00215935 0.564218 4.38673 0.0469041 -0.366918 4.40758 0.0199582 0.333086 4.41026 -6.10009 -8.22522 -9.47021 -5.86358 -8.22838 -11.0682 -0.0 0.0 -0.0 -2.39702 -16.442 -7.08219 2.57246 -27.7683 59.6579 1.6766 -39.7077 0.605431 -41.7927 -3.1438 4.18642 -0.401198 1.90045 -1.86574 -0.0 0.0 -0.0 10.5714 -19.4904 -18.4756 -31.5364 10.6159 -62.8141 1.05833 27.6658 -0.260603 8.75797 -0.225255 1.09498 0.798167 -20.9652 -13.2346 0.0 0.0 0.0 12.2745 -5.1018 7.69504 -8.56755 0.256803 1.28856 17.1537 -26.5482 -2.85611 32.7048 -0.0 -0.0 -0.0 0.0 -0.0 17.0499 -5.24936 7.08808 -53.3956 1.53058 -7.75888 15.6559 -28.9559 2.34037 -24.9078 0.0 0.0 0.0 0.0 0.0 
2888.50749164 694.865 -1604.02326864 -175.422543702 69.5375125087 170.392712777 -0.0124684 0.841949 4.34207 -0.00215935 0.564218 4.38673 0.0469041 -0.366918 4.40758 0.0199582 0.333086 4.41026 -6.10009 -8.22522 -9.47021 -5.86358 -8.22838 -11.0682 -0.0 0.0 -0.0 -2.39702 -16.442 -7.08219 2.57246 -27.7683 59.6579 1.6766 -39.7077 0.605431 -41.7927 -3.1438 4.18642 -0.401198 1.90045 -1.86574 -0.0 0.0 -0.0 10.5714 -19.4904 -18.4756 -31.5364 10.6159 -62.8141 1.05833 27.6658 -0.260603 8.75797 -0.225255 1.09498 0.798167 -20.9652 -13.2346 0.0 0.0 0.0 12.2745 -5.1018 7.69504 -8.56755 0.256803 1.28856 17.1537 -26.5482 -2.85611 32.7048 -0.0 -0.0 -0.0 0.0 -0.0 17.0499 -5.24936 7.08808 -53.3956 1.53058 -7.75888 15.6559 -28.9559 2.34037 -24.9078 0.0 0.0 0.0 0.0 0.0 
2884.41377877 688.731 -1581.52710409 -175.016500941 66.3124068971 170.272416374 -0.0801843 0.686578 4.36909 -0.0696601 0.407447 4.40383 -0.0325324 -0.530358 4.39075 -0.0593859 0.169034 4.41937 -6.89526 -7.67443 -8.89559 -6.6885 -7.79804 -10.4141 -0.0 0.0 -0.0 -1.97556 -17.6417 -6.32597 6.20678 -27.8322 59.1386 1.74813 -40.8881 0.651699 -41.5556 -3.1181 4.17013 -0.611585 3.75821 -2.46073 -0.0 0.0 -0.0 10.3878 -19.2626 -18.2153 -33.4235 10.1443 -63.1757 1.08426 28.2399 -0.272755 8.38769 -0.219138 1.04808 0.875468 -20.7159 -13.6218 0.0 0.0 0.0 10.6817 -5.28786 7.23449 -7.74182 0.240484 1.1629 19.6325 -26.9647 -3.24074 33.2383 -0.0 -0.0 -0.0 0.0 -0.0 18.1096 -1.78209 6.69051 -47.4601 1.00823 -7.00919 14.9378 -29.5175 2.24744 -25.2325 0.0 0.0 0.0 0.0 0.0 
2856.42970913 695.734 -1547.36923145 -178.944815048 64.1046051342 174.205273994 -0.311376 0.628737 4.34802 -0.30093 0.351059 4.37914 -0.267802 -0.598329 4.3523 -0.294214 0.0958581 4.39212 -6.15103 -7.94632 -8.37582 -5.96682 -8.53529 -9.92044 -0.0 0.0 -0.0 -1.61241 -17.2604 -5.49287 8.00128 -26.8676 58.166 1.83645 -42.2895 0.710328 -41.1098 -3.06995 4.13922 -0.862359 4.01661 -4.00458 -0.0 0.0 -0.0 9.79538 -18.3525 -17.3909 -34.6579 9.81768 -63.432 1.06943 27.9123 -0.265778 7.18738 -0.197227 0.896319 1.12805 -19.9902 -14.9348 0.0 0.0 0.0 8.49598 -5.49531 6.73082 -10.7227 0.290848 1.61749 20.0183 -27.7471 -3.32811 34.3186 -0.0 -0.0 -0.0 0.0 -0.0 20.0382 -0.404767 6.67767 -41.7906 0.584593 -6.2471 13.9875 -24.9347 2.05213 -25.0903 0.0 0.0 0.0 0.0 0.0 
2830.12745486 688.608 -1516.50483342 -177.052716567 64.5593830002 171.642775301 -0.390945 0.471173 4.25342 -0.380905 0.199815 4.27473 -0.36008 -0.730745 4.21665 -0.384879 -0.0562681 4.27902 -3.11367 -8.77553 -7.05237 -2.96338 -10.4733 -8.58982 -0.0 0.0 -0.0 -1.34945 -18.0993 -5.02881 11.5364 -25.1745 56.0186 1.99704 -44.6861 0.820868 -39.6989 -2.9192 4.03895 -1.02185 3.88234 -5.11881 -0.0 0.0 -0.0 9.45844 -15.8831 -17.1769 -35.4433 9.67369 -63.4696 1.06148 27.7359 -0.262067 4.57163 -0.138492 0.567369 1.48679 -16.3111 -15.9936 0.0 0.0 0.0 7.01066 -1.65863 7.13635 -16.8622 0.319799 2.55858 18.3466 -30.0844 -3.17172 35.965 -0.0 -0.0 -0.0 0.0 -0.0 20.1997 2.32256 8.99868 -23.1002 -0.245955 -3.51242 10.2078 -16.0532 1.46478 -25.82 0.0 0.0 0.0 0.0 0.0 
2829.73910438 688.608 -1517.38962299 -177.036835135 64.7052464423 171.625199137 -0.390945 0.471173 4.25342 -0.380905 0.199815 4.27473 -0.36008 -0.730745 4.21665 -0.384879 -0.0562681 4.27902 -3.11367 -8.77553 -7.05237 -2.96338 -10.4733 -8.58982 -0.0 0.0 -0.0 -1.34945 -18.0993 -5.02881 11.5364 -25.1745 56.0186 1.99704 -44.6861 0.820868 -39.6989 -2.9192 4.03895 -1.02185 3.88234 -5.11881 -0.0 0.0 -0.0 9.45844 -15.8831 -17.1769 -35.4433 9.67369 -63.4696 1.06148 27.7359 -0.262067 4.57163 -0.138492 0.567369 1.48679 -16.3111 -15.9936 0.0 0.0 0.0 7.01066 -1.65863 7.13635 -16.8622 0.319799 2.55858 18.3466 -30.0844 -3.17172 35.965 -0.0 -0.0 -0.0 0.0 -0.0 20.1997 2.32256 8.99868 -23.1002 -0.245955 -3.51242 10.2078 -16.0532 1.46478 -25.82 0.0 0.0 0.0 0.0 0.0 
2825.31117963 696.731 -1505.81989364 -176.253438371 65.3649423617 170.54325234 -0.554611 0.690957 4.1676 -0.54505 0.424601 4.20304 -0.507284 -0.50593 4.19404 -0.531787 0.16218 4.22128 -1.17357 -9.2573 -6.61234 -1.01884 -11.3195 -8.11227 -0.0 0.0 -0.0 -1.361 -17.6998 -5.00481 12.1225 -25.7585 56.1462 2.06509 -45.6455 0.869125 -40.3646 -2.99002 4.08672 -0.946538 3.35786 -4.85194 -0.0 0.0 -0.0 9.40002 -14.2347 -17.2829 -34.6298 9.90709 -63.4568 1.10413 28.6758 -0.282225 4.58662 -0.138872 0.569246 1.76193 -15.9891 -17.6674 0.0 0.0 0.0 6.51719 -1.1325 6.78688 -14.713 0.32114 2.22886 16.7539 -31.2214 -2.96728 35.7739 -0.0 -0.0 -0.0 0.0 -0.0 19.9831 2.93681 10.3756 -13.1878 -0.31459 -1.99494 5.7023 -15.9366 0.829482 -25.986 0.0 0.0 0.0 0.0 0.0 
2814.86725849 692.025 -1499.82881648 -176.977990946 66.400994219 171.223636788 -0.699918 0.774252 4.03071 -0.69103 0.516416 4.07172 -0.647547 -0.397315 4.08504 -0.67074 0.252268 4.09653 -1.04016 -9.01668 -6.58134 -0.88991 -10.885 -8.04686 -0.0 0.0 -0.0 -1.55236 -18.1014 -5.46772 12.9919 -26.6664 56.097 2.22356 -47.7585 0.984483 -40.4058 -2.99442 4.08965 -0.898577 3.17324 -4.61522 -0.0 0.0 -0.0 9.28626 -13.2758 -17.1943 -34.5204 10.0627 -63.4329 1.11449 28.9016 -0.287215 4.61431 -0.139571 0.572714 1.83256 -14.9576 -17.7954 0.0 0.0 0.0 4.4998 -1.28744 7.02919 -11.6458 0.301641 1.75871 16.9161 -30.5589 -2.96631 35.8067 -0.0 -0.0 -0.0 0.0 -0.0 20.2016 3.63923 11.6449 -4.83859 -0.168759 -0.723183 4.69442 -15.4983 0.684115 -26.1515 0.0 0.0 0.0 0.0 0.0 
2814.07451588 692.025 -1501.53340115 -176.945095518 66.6700006211 171.187776012 -0.699918 0.774252 4.03071 -0.69103 0.516416 4.07172 -0.647547 -0.397315 4.08504 -0.67074 0.252268 4.09653 -1.04016 -9.01668 -6.58134 -0.88991 -10.885 -8.04686 -0.0 0.0 -0.0 -1.55236 -18.1014 -5.46772 12.9919 -26.6664 56.097 2.22356 -47.7585 0.984483 -40.4058 -2.99442 4.08965 -0.898577 3.17324 -4.61522 -0.0 0.0 -0.0 9.28626 -13.2758 -17.1943 -34.5204 10.0627 -63.4329 1.11449 28.9016 -0.287215 4.61431 -0.139571 0.572714 1.83256 -14.9576 -17.7954 0.0 0.0 0.0 4.4998 -1.28744 7.02919 -11.6458 0.301641 1.75871 16.9161 -30.5589 -2.96631 35.8067 -0.0 -0.0 -0.0 0.0 -0.0 20.2016 3.63923 11.6449 -4.83859 -0.168759 -0.723183 4.69442 -15.4983 0.684115 -26.1515 0.0 0.0 0.0 0.0 0.0 
2802.196387 676.815 -1503.66910236 -175.840898013 66.7842639754 170.646199939 -0.900099 0.758233 3.7263 -0.892526 0.519755 3.76692 -0.852033 -0.340035 3.78734 -0.871949 0.26193 3.79353 -0.870007 -8.66597 -6.53849 -0.726207 -10.2561 -7.95621 -0.0 0.0 -0.0 -1.86363 -18.6411 -6.20905 14.5801 -27.0144 55.6469 2.47312 -50.7689 1.17364 -40.4756 -3.00188 4.09461 -0.84038 3.05467 -4.28126 -0.0 0.0 -0.0 9.09861 -12.9173 -16.9011 -34.5546 9.82194 -63.6212 1.12107 29.0446 -0.290403 4.68594 -0.141373 0.581686 1.87314 -13.4612 -17.5707 0.0 0.0 0.0 1.68912 -1.49892 7.62483 -7.24615 0.229818 1.08758 17.1018 -29.608 -2.95817 35.7055 -0.0 -0.0 -0.0 0.0 -0.0 21.0994 4.30951 10.6611 4.70036 0.2219 0.686818 3.2264 -14.8693 0.471413 -26.4018 0.0 0.0 0.0 0.0 0.0 
2783.11631944 677.05 -1501.00669293 -178.627402736 66.9862982698 173.298735464 -1.19589 0.747317 3.67464 -1.18852 0.512141 3.71467 -1.14855 -0.355062 3.73294 -1.16791 0.238516 3.74218 -1.09169 -8.11388 -6.54866 -0.956675 -9.29535 -7.91063 -0.0 0.0 -0.0 -1.90674 -19.0247 -6.35033 14.5704 -27.1986 55.7705 2.53848 -51.4986 1.22453 -40.8159 -3.03835 4.11864 -0.756574 3.07951 -3.71467 -0.0 0.0 -0.0 9.1254 -12.5359 -16.9887 -34.3978 9.44095 -64.0084 1.12069 29.0362 -0.290215 4.7887 -0.143938 0.594563 1.84951 -12.8126 -17.1969 0.0 0.0 0.0 0.847105 -1.488 6.33101 -7.97954 0.245368 1.19905 16.068 -29.4959 -2.79057 35.5418 -0.0 -0.0 -0.0 0.0 -0.0 21.5586 4.7657 10.9962 6.45744 0.31924 0.938648 3.36298 -14.222 0.490582 -26.2697 0.0 0.0 0.0 0.0 0.0 
2767.86822423 677.021 -1498.29982371 -179.491810553 65.9885011859 174.39455669 -1.2554 0.723632 3.60778 -1.2483 0.49275 3.64645 -1.21031 -0.362227 3.6617 -1.22895 0.220213 3.67296 -1.26146 -7.36008 -6.52861 -1.13643 -7.98413 -7.80523 -0.0 0.0 -0.0 -1.94403 -19.5569 -6.49718 14.522 -27.4467 56.0031 2.63347 -52.5189 1.2994 -41.3013 -3.09061 4.15255 -0.637121 3.12136 -2.90511 -0.0 0.0 -0.0 9.16223 -12.0221 -17.1075 -34.1784 8.87208 -64.5719 1.12012 29.024 -0.289942 5.00749 -0.149321 0.621993 1.81177 -11.8849 -16.6308 0.0 0.0 0.0 -0.533956 -1.47211 5.36101 -9.05549 0.265595 1.36292 14.5892 -29.4086 -2.55012 35.3097 -0.0 -0.0 -0.0 0.0 -0.0 22.0489 5.3624 11.3742 7.97127 0.409284 1.15319 3.31742 -13.597 0.483473 -26.1089 0.0 0.0 0.0 0.0 0.0 
2750.74772396 672.271 -1496.42898335 179.393742801 64.8419773677 175.434038504 -1.35191 0.699162 3.56875 -1.34495 0.470807 3.60594 -1.30868 -0.380475 3.61658 -1.32688 0.195082 3.63128 -1.21924 -6.37617 -6.51909 -1.10294 -6.21326 -7.67899 -0.0 0.0 -0.0 -2.01328 -19.3851 -6.6267 14.3404 -27.7503 56.3643 2.70014 -53.2078 1.35255 -41.9476 -3.16063 4.197 -0.476281 3.36322 -1.73681 -0.0 0.0 -0.0 9.18204 -11.2959 -17.2162 -33.8279 8.11906 -65.4828 1.14168 29.4896 -0.300479 5.31984 -0.156826 0.661187 1.7512 -10.7196 -15.823 0.0 0.0 0.0 -1.21122 -1.3292 4.37944 -10.5941 0.289164 1.59783 12.4516 -29.3051 -2.19626 34.9762 -0.0 -0.0 -0.0 0.0 -0.0 22.3249 6.09745 11.722 8.00951 0.411632 1.15857 2.57166 -13.1435 0.375255 -25.9166 0.0 0.0 0.0 0.0 0.0 
